<svg xmlns="http://www.w3.org/2000/svg" width="451" height="483" viewBox="0 0 451 483"><ellipse id="bg_oval" class="cls-1" fill="#f3f1eb" cx="225.594" cy="263.672" rx="222" ry="213.797"></ellipse><path id="bg_head" class="cls-2" fill-rule="evenodd" fill="#f3f1eb" d="M237,55a93.909,93.909,0,0,0-28-16s-2.124-27.853-11-35c0,0-23.546-8.814-33,18,0,0,19.552-.883,20,5l-1,24-7,13S206.363,90.539,237,55Z"></path><path id="logo" class="cls-3" fill-rule="evenodd" fill="#b99532" d="M310.982,424.584l3.318-2.142c3.319,2.364,5.478,2.593,7.551.456a3.977,3.977,0,0,0,1.049-3.279c-0.242-.7-2-1.263-3.056-1.223a52,52,0,0,0-5.529.991c-3.172.47-5.682-.816-6.8-3.36-1.128-2.571-.34-5.18,2.191-7.258,4.254-3.493,9.13-3.617,11.878-.294a5.857,5.857,0,0,1,.454.859c-1.619.923-2.713,2.99-5.147,1.033-1.392-1.118-4.94.56-5.621,2.3-0.564,1.441.338,2.472,2.284,2.275,2.621-.264,5.211-1.016,7.83-1.1a6.17,6.17,0,0,1,5.824,8.387c-1.451,3.729-4.731,5.26-8.33,6.064C315.588,429.03,313.081,427.6,310.982,424.584Zm-11.918,2.839,9.149,6.4c-4.013,2.558-4.184,2.552-7.552.091-1.309-.957-2.6-1.944-3.957-2.832-1.989-1.3-2.806-1.269-5.3.062,0.924,2.618,1.855,5.257,2.887,8.18l-4.063,1.517c-2.462-6.754-4.876-13.375-7.4-20.286,3.373-1.221,6.609-2.474,9.9-3.563,4.222-1.4,6.643-.7,8.27,2.2C302.689,422.2,302.107,424.582,299.064,427.423ZM288.221,422.5l1.953,5.131a35.149,35.149,0,0,0,5.871-2.5,3.534,3.534,0,0,0,1.084-3.124,3.134,3.134,0,0,0-2.678-1.513A41.425,41.425,0,0,0,288.221,422.5Zm-7.357,17.712c0.342,1.256.607,2.232,0.946,3.48l-15.8,4.28-5.593-20.855,15.368-4.151c0.356,1.2.658,2.212,1.036,3.486l-11.091,3.086c0.352,1.5.674,2.867,1.062,4.517l10.4-2.7c0.324,1.129.621,2.167,0.984,3.432l-10.359,2.906c0.5,1.9.971,3.66,1.472,5.549Zm-41.921-10.684,15.787-1.655,0.5,3.589-11.452,1.316c0.14,1.643.261,3.048,0.4,4.62l10.678-1.019c0.141,1.223.262,2.27,0.406,3.522l-10.651,1.262c0.191,1.96.361,3.7,0.554,5.688l11.923-1.147c0.118,1.285.21,2.284,0.328,3.572l-16.231,1.737C240.425,443.771,239.7,436.816,238.943,429.529Zm-7.587,22.111c-2.644.683-4.521,0.3-5.92-2.371a66.656,66.656,0,0,0-6.907-10.36v12.806h-3.964V430.536c2.744-.731,4.539-0.152,5.906,2.522a71.511,71.511,0,0,0,6.931,10.61V430.426h3.954V451.64ZM203,428.748l4.328,0.549c-0.742,7.133-1.471,14.129-2.219,21.325l-4.351-.343C201.5,443.122,202.229,436.117,203,428.748Zm-13.65,11.8-4.91-1.208,0.695-3.492,9.165,1.9c-0.586,2.757-1.063,5.411-1.773,8a2.926,2.926,0,0,1-1.777,1.232,14.161,14.161,0,0,1-10.025-.077,9.681,9.681,0,0,1-6.57-9.461c-0.106-5.141,2.466-9.639,6.482-11.336,3.622-1.53,9.451-.647,11.954,2.173,1.2,1.349,1.761,3.261,2.8,5.278-2.791.249-4.5,0.722-5.711-1.955-1.514-3.348-7.134-3.238-9.318-.053a10.105,10.105,0,0,0-1.472,8.119c0.81,3.639,6.211,5.713,9.18,3.542C188.722,442.732,188.881,441.564,189.346,440.546Zm-25.5,1.047c-3.545-.074-4.689-1.9-5.154-4.827-0.616-3.867-1.665-7.665-2.7-12.26-1.67,4.751-3.1,8.827-4.605,13.1l-3.783-1.34,6.885-20.164c2.652,0.258,4.405,1,4.847,4.074a66.336,66.336,0,0,0,3.233,12.45l4.361-12.455,3.826,1.268C168.412,428.285,166.128,434.948,163.849,441.593ZM125.05,424.9c0.386-.854.66-1.559,1.011-2.222,2.955-5.569,5.924-11.131,9-16.906l14.079,7.5c-0.6,1.154-1.095,2.108-1.689,3.25L137.2,411.107l-2.188,4.123,9.462,5.139-1.661,3.185-9.518-4.981-2.774,5.05,10.537,5.668c-0.538,1.081-1.014,2.035-1.629,3.269Zm277.589-82.657-3.4-1.3c1.3-3.277,2.534-6.4,3.826-9.665l-4.566-1.9c-1.175,2.79-2.291,5.441-3.466,8.233l-3.353-1.269c1.1-2.785,2.12-5.384,3.267-8.3l-8.367-3.561c0.542-1.325,1.043-2.547,1.638-4l19.943,8.071C406.3,333.157,404.527,337.562,402.639,342.247Zm11.617-34.717c-0.018,6.4-4.177,10.948-10.06,11.012-7.077.077-12.361-4.318-12.365-10.284,0-6.342,4.246-11,10.074-11.027C409.014,297.192,414.273,301.577,414.256,307.53Zm-12.2-6.056c-3.236.293-5.584,2-6.206,4.76a5.521,5.521,0,0,0,3.548,6.62,16.723,16.723,0,0,0,5.712,1.133,5.132,5.132,0,0,0,5.075-4.278c0.653-2.736-.181-5.091-2.632-6.331A40.894,40.894,0,0,0,402.056,301.474Zm-3.768-28.8c-0.7-2.143-.436-4.037,2.214-5.545,3.479-1.981,6.7-4.413,10.028-6.666a1.056,1.056,0,0,0,.119-0.5H397.783c-0.059-1.137-.119-2.3-0.205-3.981h21.365c0.838,2.2.323,3.949-2.17,5.4-3.679,2.135-7.128,4.666-11.081,7.3h13.77c0.072,1.1.148,2.268,0.261,4H398.288Zm9.166-44.093c6.339-.016,10.393,4.206,10.368,10.8-0.023,6.146-4.8,10.231-11.972,10.236-6.236,0-10.4-4.356-10.374-10.874C395.5,232.537,400.143,228.6,407.454,228.578ZM406.593,245.1a27.687,27.687,0,0,0,3.754-.927,5.337,5.337,0,0,0,3.692-5.56c-0.207-2.868-1.817-4.939-4.642-5.33a14.745,14.745,0,0,0-5.3.3,5.722,5.722,0,0,0-4.729,6.6C399.77,243.224,402.313,245.156,406.593,245.1Zm6.376-29.069c0.355,1.674.613,2.891,0.909,4.285l-20.747,5.177-1.1-4.237Zm-1.959-6.448-3.356,1.295c-0.77-1.956-1.508-3.832-2.332-5.924l-16.657,6.024-1.569-4.053,16.648-6.136c-0.641-1.995-1.252-3.894-1.941-6.034l3.364-1.208C407.131,198.938,409.022,204.129,411.01,209.583ZM393.739,170.8l2.179,3.924c-1.941,1.087-3.841,2.146-5.737,3.212-2.009,1.13-4.035,2.232-6.016,3.409-2.817,1.673-3.4,3.4-2.078,5.9,1.357,2.574,3,3.033,5.955,1.469,3.914-2.07,7.775-4.242,11.959-6.534,0.707,1.25,1.354,2.4,2.2,3.892-4.93,2.59-9.677,5.262-14.588,7.588a5.317,5.317,0,0,1-6.709-1.7,21.2,21.2,0,0,1-3.393-6.226,5.59,5.59,0,0,1,2.409-6.758C384.384,176.178,388.982,173.6,393.739,170.8ZM366.5,168.854l14.2-10.774L377,152.953l2.851-2.231,10.3,13.669-2.9,2.249L383.4,161.6,369.177,172.32C368.293,171.176,367.439,170.069,366.5,168.854Zm-6.532-8.519-2.8-3.4,16.481-13.858,2.828,3.337Zm9.445-21.507-2.307,2.308-4.548-4.327L350.066,149.4,347.38,145.8l12.435-12.036-5.59-4.566,3.364-2.213Zm-39.729-15.813c1.271,0.785,2.338,1.444,3.362,2.075-0.781,4.057.267,6.4,3.407,7.174a3.452,3.452,0,0,0,2.932-.684,3.243,3.243,0,0,0-.029-2.931c-0.947-1.7-2.362-3.131-3.447-4.764-1.987-2.99-1.895-5.889.124-8s4.894-2.326,8-.582c5.066,2.847,6.573,6.677,4.2,10.99-1.913-.895-3.744-1.566-3.282-4.475,0.273-1.721-2.729-3.924-4.522-3.712-1.466.173-1.932,1.1-1.354,2.359a18.565,18.565,0,0,0,1.824,2.77,46.571,46.571,0,0,1,2.8,3.971,6.291,6.291,0,0,1-4.089,9.28c-3.8.871-6.532-1.342-9.035-3.742a7.011,7.011,0,0,1-1.928-7.523A17.5,17.5,0,0,1,329.686,123.015Zm-1.929-18.662,3.579,1.892-9.987,18.827c-3.05-.645-4.3-2.158-4.261-5.213a64,64,0,0,0-1.24-12.148c-1.994,3.711-3.987,7.421-6.13,11.408l-3.59-1.864,9.971-18.81c3.152,0.534,4.176,2.314,4.2,5.206a81.01,81.01,0,0,0,1.125,12.522C323.52,112.264,325.614,108.355,327.757,104.353Zm-18.42-9.68-8.4,19.8-4.015-1.69,8.4-19.88ZM143.871,93.034c0.554,1.145,1.024,2.118,1.593,3.3L135.1,101.472c0.646,1.343,1.254,2.608,2.018,4.2l9.667-4.637c0.543,1.041,1.044,2,1.653,3.17l-9.657,4.87c0.862,1.782,1.634,3.376,2.5,5.16l10.747-5.2,1.665,3.249-14.733,7.2-9.448-19.386Zm-43.788,26.34,3.675-2.518,10.066,9.523,0.442-.254q-1.526-4.439-3.052-8.877c-1.617-4.675-1.619-4.674,2.9-7.207l10.424,9.3,0.443-.274-5.069-13.027c1.068-.757,2.147-1.52,3.58-2.534,0.543,1.45,1,2.682,1.464,3.914q2.463,6.606,4.924,13.211c1.468,3.944,1.466,3.944-2.6,6.2L115.589,116.68l-0.366.228,5.067,14.82-3.908,2.657ZM96.866,151.82L82.075,136.991c2.218-2.16,4.6-4.462,6.963-6.785,1.924-1.893,4.043-3.25,6.854-2.189,2.712,1.023,3.476,3.287,3.359,6.174,3.389-.915,5.987-0.02,7.5,3.125a5.056,5.056,0,0,1-.7,6C103.075,146.336,99.832,149.1,96.866,151.82Zm0.864-5.069c1.455-1.468,2.93-2.872,4.3-4.368a2.547,2.547,0,0,0,.031-3.878,2.6,2.6,0,0,0-3.893,0c-1.525,1.338-2.956,2.783-4.5,4.251Zm-9.758-10.175,3.239,3.553a32.8,32.8,0,0,0,3.934-4.3,3.2,3.2,0,0,0-.171-3.073,3.131,3.131,0,0,0-3.042-.072A30.61,30.61,0,0,0,87.972,136.576Zm-18.46,15.5c2.7-3.757,2.7-3.765,6.777-2.419q8.843,2.919,17.689,5.863c-1.581,3.686-2.121,4.018-5.587,2.732-1.457-.54-2.388-0.409-3.232.906a9.938,9.938,0,0,1-1.816,2.149c-2.149,1.857-2.4,3.646-.641,6.081s-1.287,3.11-2.146,4.9Zm5.292,1.453,4.215,7.205,3.717-4.378Zm-7.235,18.992c3.527-1.6,5.759-1.39,7.733.7,2.093,2.219,2.261,4.675.395,8-1.789,3.188-3.684,6.316-5.651,9.673L51.538,179.755c1.89-3.116,3.68-6.1,5.5-9.058,1.386-2.254,3.227-3.864,6.066-3.388S67.237,169.785,67.568,172.521Zm1.587,12.7c1.143-1.964,2.221-3.695,3.174-5.492,0.771-1.455.635-2.844-.895-3.766a2.584,2.584,0,0,0-3.77.914c-1.189,1.716-2.247,3.523-3.415,5.376Zm-8-4.811a36.33,36.33,0,0,0,2.94-5.368,3.214,3.214,0,0,0-.931-2.955,3.144,3.144,0,0,0-2.969.665,36.918,36.918,0,0,0-3.3,5.091ZM47.814,206.072l13.234,5.7-1.509,3.743-19.662-8.355a3.9,3.9,0,0,1,.079-0.709c2.058-5.52,2.056-5.5,7.829-4.595a52.119,52.119,0,0,0,8.646.751l-11.163-8.7,2.546-6.027,19.826,8.41-1.579,3.744-13.494-5.688-0.27.395,11.89,9.076c-1.03,4.1-1.027,4.079-4.848,3.478-3.783-.595-7.572-1.151-11.358-1.724Zm10.487,15.1-1.048,4.231-20.816-5.176c0.336-1.508.624-2.8,0.956-4.288Zm-22.463,4.489a24.766,24.766,0,0,1,4.233,3.112c3.409,3.816,6.614,7.816,10.3,12.221l2.408-11.779,3.554,0.527-3.275,17.018A6.2,6.2,0,0,1,47.4,244.27c-2.982-3.84-6.208-7.49-9.728-11.69l-2.025,9.679-3.532-.7L35.051,226.4Zm3.917,52.642,3.52-.282,1.412,10.535,5.7-.656L49,276.074l3.575-.554c0.681,5.525,1.334,10.827,2.012,16.32l-21.366,2.632-1.952-15.748,3.576-.636,1.482,11.39,4.587-.294C40.521,285.5,40.155,282.064,39.755,278.307Zm-3.815,28.7-1-4.182,20.974-4.876,0.959,4.212-9.057,2.22c0.606,2.692,1.194,5.309,1.843,8.189l9.118-2.018,1.062,4.2-20.986,4.871L37.889,315.4l8.146-1.991-1.852-8.162Zm5.628,19.867,3.366-1.305,2.488,5.773,16.514-6.605,1.645,4-16.463,6.761,2.192,5.889-3.3,1.428Zm-1.813-48.566,3.52-.282,1.412,10.535,5.7-.656L49,276.074l3.575-.554c0.681,5.525,1.334,10.827,2.012,16.32l-21.366,2.632-1.952-15.748,3.576-.636,1.482,11.39,4.587-.294C40.521,285.5,40.155,282.064,39.755,278.307Zm-3.815,28.7-1-4.182,20.974-4.876,0.959,4.212-9.057,2.22c0.606,2.692,1.194,5.309,1.843,8.189l9.118-2.018,1.062,4.2-20.986,4.871L37.889,315.4l8.146-1.991-1.852-8.162Zm5.628,19.867,3.366-1.305,2.488,5.773,16.514-6.605,1.645,4-16.463,6.761,2.192,5.889-3.3,1.428ZM95.434,240.63h6.082c6.99-22.106,8.983-44.695,9.022-67.957l33.063,0.966c0,3.349-.043,6.488.007,9.626,0.256,16.354,2.036,32.455,7.973,47.86,0.031,0.08.045,0.167,0.081,0.244,1.326,2.87,1.961,6.668,4.186,8.335,2.024,1.516,5.775.716,8.764,0.943,0.327,0.025.65,0.092,1.115,0.16v10.924H95.434v-11.1Zm19.974-62.868c-0.839,10.534-1.234,21.17-2.648,31.669-1.406,10.438-3.835,20.737-5.812,31.079h43.82c-9.575-19.861-11.755-40.911-11.645-62.748H115.408ZM285.56,245.711V201.979l2.895-.475c-4.51-7.8-4.4-13.887.268-18.295,3.652-3.452,7.854-3.568,12.975-.272a13.7,13.7,0,0,0,.656-1.272c2.025-5.133,6.218-7.993,10.753-7.317,4.7,0.7,8.389,5.016,8.877,10.264,1.4,15.1,4.847,29.718,11.245,43.479,2.577,5.545,6.135,10.632,9.254,15.924,0.288,0.488.632,0.944,1.14,1.7H285.56Zm3.089-30.236v27.2h13.234v-27.2H288.649Zm13.73-23.2a9.448,9.448,0,0,0,0-1.024c-0.567-5.134-4.669-8.613-8.706-7.394-3.206.968-5.466,4.238-5.591,8.089-0.126,3.888,2.083,7.477,5.277,8.573C297.848,202.058,302.422,197.894,302.379,192.27Zm2.651,50.324c1.4,0,2.335.058,3.264-.013,1.405-.108,3.36.23,4.111-0.554,3.575-3.734,6.822-7.784,10.346-11.908l-7.658-6.879c-2.969,3.21-6.168,6.642-9.323,10.113a2.675,2.675,0,0,0-.707,1.55C304.989,237.358,305.03,239.816,305.03,242.594Zm14.215-56.115a34.95,34.95,0,0,0-.954-4.142,7.129,7.129,0,0,0-6.473-4.977c-2.739.019-5.261,1.984-6.439,5.045a9.689,9.689,0,0,0,.71,8.618c2.663,4.644,8.394,4.847,11.268.339A24.606,24.606,0,0,0,319.245,186.479Zm9.9,40.784L316.126,242.58H337.4Zm-14-18.663c-3.894-4.112-3.912-4.14-8.36-1.289a3.473,3.473,0,0,0-1.677,1.944c-0.208,2.407-.08,4.843-0.08,7.87Zm3.149,12.731c1.095,1.155,2.1,2.194,3.085,3.258,1.023,1.109,2.02,2.243,3.026,3.362,4.559-4.6,3.986-8.543-1.458-11.558Zm-8.445-3.916c-5.855,2.2-5.117,7-4.667,11.741,2.691-2.871,5.332-5.689,8.056-8.6Zm6.228,1.392,4.8-4.9-3.462-3.275-5.343,4.517Zm4.608-19.955-6.958,4.3c0.857,0.733,1.433,1.224,2.007,1.717,0.615,0.53,1.228,1.061,1.812,1.565C322.558,202.341,322.154,203.827,320.689,198.852ZM307.552,196.8c3.553,4.35,3.553,4.35,7.908,1.714a41.344,41.344,0,0,0,3.9-2.417,5.242,5.242,0,0,0,.967-1.919c-0.21-.151-0.421-0.3-0.631-0.45C316.425,197.475,312.472,198.633,307.552,196.8Zm-3.308,1.405-2.41,3.324,3.017,0.35c0.1,0.881.2,1.687,0.331,2.8l3.63-2.2ZM319.7,208.653l3.607,3.194,0.58-.394c-0.4-1.57-.8-3.141-1.279-5.045ZM191.142,12.3a3.908,3.908,0,0,1-3.772,3.988,4.04,4.04,0,0,1-3.913-3.916,3.919,3.919,0,0,1,3.719-3.791A3.713,3.713,0,0,1,191.142,12.3ZM162.494,25.512c-0.163-10.486,8.889-21.582,20.018-24.475,5.352-1.392,10.669-1.384,15.808.914a13.366,13.366,0,0,1,8.3,10.326c1.392,7.748,2.968,15.463,4.36,23.211a3.21,3.21,0,0,0,2.182,2.723c5.276,2.4,10.426,5.075,15.672,7.543a12.338,12.338,0,0,0,4.533,1.387c51.736,2.084,98.025,18.975,138.006,52.016,41.319,34.146,67.579,77.626,76.2,130.813,10.338,63.808-5.54,121.089-46.453,170.891-34.3,41.755-78.76,67.175-131.6,77.63A228.91,228.91,0,0,1,55.913,408.649C27.535,377.785,9.139,341.561,2.827,299.982c-11.643-76.7,12.018-141.491,68.437-194.09,30.807-28.721,67.622-46.275,108.859-54.5a2.2,2.2,0,0,0,2.134-2.523c0.155-6.51.288-13.026,0.719-19.52,0.169-2.538-.879-3.576-3.025-4.171-5.017-1.39-10-.712-14.987.163-0.671.118-1.343,0.233-2.019,0.319A1.159,1.159,0,0,1,162.494,25.512Zm12.867,47.85c-0.718.164-1.456,0.316-2.186,0.5-29.774,7.549-56.859,20.7-80.327,40.545C42.2,157.233,17.4,211.735,21.207,278.448c1.95,34.187,13.193,65.433,32.292,93.768,44.225,65.61,122.865,99.648,203.068,87.8,36.145-5.34,68.923-19.08,97.524-41.937,45.853-36.642,71.651-84.223,75.361-143.141a178.549,178.549,0,0,0-15.635-86.36C385.449,126.431,337.156,88.516,271.283,72.456c-3.771-.919-7.617-1.525-11.988-2.387l26.726,28.763c-1.73.181-2.562,0.276-3.4,0.355-5.19.488-10.383,0.949-15.568,1.483a2.825,2.825,0,0,0-1.97.793c-1.954,3.673-3.754,7.427-5.665,11.281,0.655,0.174.973,0.271,1.3,0.343,28.462,6.347,53.632,19.138,75.167,38.881,52.289,47.94,65.367,123.558,31.986,184.919-31.341,57.611-95.189,89.988-161.44,82.477-34.909-3.958-66.013-17.263-91.6-41.473C70.6,336.032,54.475,284.832,69.7,225.553c11.865-46.208,41.461-78.875,83.868-99.967,7.306-3.634,15.084-6.313,22.756-9.48-0.575-.95-1.327-2.085-1.975-3.277-5.508-10.143-6.2-20.451-.166-30.523C175.991,79.285,176.482,76.659,175.361,73.362ZM70.68,254.951l309.078,5.626c-0.163-64.7-51.2-128.732-123.306-142v34.161l-69.469,3.37c-0.946-11.816-2.544-23.283-7.491-33.969C121.82,138.247,74.4,191.375,70.68,254.951ZM177.953,58.208a1.262,1.262,0,0,0-.461-0.114c-0.5.072-1.006,0.174-1.5,0.286-41.715,9.4-78.32,28.585-108.3,59.166C17.3,168.94-2.967,230.636,9.224,301.831c8.569,50.042,33.685,91.321,72.8,123.379,53.66,43.98,115.355,59.4,183.455,47.755,49.39-8.443,91.481-31.454,124.919-68.917,44.947-50.358,62.381-109.429,50.757-176.081-9.087-52.11-35.909-94.217-77.087-127.04C332.394,75.68,296.19,60.744,256.151,55.11c-5.08-.715-10.206-1.1-15.311-1.643a112.707,112.707,0,0,0,9.025,8.239,3.433,3.433,0,0,0,.773.666,10.213,10.213,0,0,0,2.4.776,212.655,212.655,0,0,1,80.513,27.239c70.835,41.156,111.828,119.47,100.246,201.907-5.486,39.052-20.925,73.838-47.239,103.025-53.415,59.249-120.435,81.959-198.668,69.635-51.095-8.048-93.909-32.729-126.836-72.87C19.52,341.45,5.3,283.4,20.1,219.482c13.183-56.943,46.925-99.417,96.849-129.144A207.66,207.66,0,0,1,173.526,67.5c0.868-.216,2.08-0.788,2.321-1.479C176.733,63.484,177.278,60.827,177.953,58.208Zm186.676,270.97q0.409-.561.818-1.124a35.738,35.738,0,0,1-3.674-2.736c-9.226-8.834-20.106-15.027-31.78-19.88-25.569-10.629-52.454-14.985-79.906-16.462-3.772-.2-7.572.169-11.355,0.1-2.93-.054-5.853-0.467-8.783-0.537-0.8-.019-1.609.625-2.554,1.024-2.627-3.021-45.448,1.514-72.645,7.975-24.231,5.756-47.421,14.149-68.791,27.314Zm-89-234.923a8.282,8.282,0,0,0-.576-0.819c-10.755-11.98-21.88-23.59-34.413-33.736-9.6-7.775-19.721-14.732-31.777-18.215a4.84,4.84,0,0,0-3.3.316c-5.877,3.124-11.675,6.4-17.491,9.637a3.361,3.361,0,0,0-1.437,1.016c-2.074,4.267-4.758,8.395-5.932,12.911-2.351,9.044.6,15.853,10.547,17.691a47.865,47.865,0,0,1,4.613,1.332,76.957,76.957,0,0,0-14.295,28.7c-0.446,1.655-.586,3.126,1.037,4.425,0.523-.923.987-1.728,1.439-2.541,4.427-7.955,10.026-14.589,18.815-18.1a8.553,8.553,0,0,0,4.086-4.6,18.022,18.022,0,0,0,1.1-7.748c-0.324-3.814-1.378-7.566-2.132-11.4C229.7,78.058,252.724,85.65,275.624,94.255ZM108.415,307.408L70.861,260.3a135.47,135.47,0,0,0,10.71,60.753Zm127.944,43.075c0.1-6.39-4.373-10.26-10.2-9.73a6.829,6.829,0,0,0-6.449,6.449c-0.89,8.248-1.888,16.485-2.8,24.731-0.774,6.97-1.594,13.939-2.166,20.927a8.858,8.858,0,0,0,1.051,5.161,103.5,103.5,0,0,0,7.222,9.642c1.887,2.316,6.06,2.846,8.727,1.355a6.005,6.005,0,0,0,2.576-7.572,12.736,12.736,0,0,0-2.846-4.463,9.1,9.1,0,0,1-2.153-10.206c2.389-5.976,3.209-12.193,4.145-18.444S235.485,355.842,236.359,350.483ZM252.8,389.918c0.2,2.082.276,4.663,0.74,7.171,1.075,5.816,2.267,6.9,7.995,7.889,5.311,0.921,7.353-1.155,7.252-6.532-0.174-9.234-.232-18.483.1-27.71,0.269-7.514,1.179-15,1.8-22.506a6.516,6.516,0,0,0-4.014-6.814c-3.164-1.544-6.467-1.869-9.474.292-2.532,1.82-2.736,4.516-2.16,7.4a20.079,20.079,0,0,1,.614,5.274C254.794,366.071,253.8,377.747,252.8,389.918ZM219.23,149.4c0-.292,0-0.584,0-0.876,7.343,0,14.687.067,22.028-.028,3.889-.051,6.68-2.04,7.573-5.02a7.876,7.876,0,0,0-3.412-8.717,12.844,12.844,0,0,0-6.38-2.146c-12.973.091-25.946,0.435-38.914,0.865a11.426,11.426,0,0,0-5.251,1.7,8.426,8.426,0,0,0-3.371,9.908c1.108,3.281,3.219,4.382,7.745,4.335C205.909,149.344,212.57,149.4,219.23,149.4ZM187.184,50.151c0.332-.157,1.024-0.438,1.674-0.8,5.458-3.009,10.872-6.1,16.383-9.009,1.6-.845,1.915-1.775,1.578-3.45-1.513-7.544-2.922-15.109-4.349-22.67-1.022-5.415-3.544-8.048-8.884-9.208a22.227,22.227,0,0,0-24.742,12.991c-0.281.647-.459,1.338-0.679,1.993,2.476,0,4.749-.33,6.884.075a63.872,63.872,0,0,1,9.963,2.77c1.846,0.674,2.753,2.33,2.457,4.554a48.942,48.942,0,0,0-.273,6.156C187.163,39.082,187.184,44.608,187.184,50.151ZM169.811,358.11l-0.9-.1c0-2.224.094-4.453-.019-6.671-0.27-5.291-3.448-8.154-8.842-8.088-5.317.065-8.347,3.1-8.463,8.489-0.176,8.214-.385,16.429-0.48,24.644-0.02,1.711-.425,2.826-2.053,3.656-2.145,1.092-2.55,5.152-.713,6.7,3.265,2.753,6.586,5.444,9.977,8.04,2.138,1.638,6.551-.06,6.911-2.656C166.8,380.794,168.292,369.45,169.811,358.11Zm13.6,24.195-0.2,0a67.554,67.554,0,0,0-.318,8.965,26.7,26.7,0,0,0,1.992,8.334c1.965,4.437,5.985,6.113,10.614,6.333,1.99,0.095,3.823-.605,4.563-2.635a6.887,6.887,0,0,0-.582-6.254c-1.682-2.952-3.317-6.374-3.486-9.67-0.557-10.863-.044-21.667,3.908-32.083,0.906-2.387.71-5.4,0.313-8.022a5.937,5.937,0,0,0-6.126-4.815,6.65,6.65,0,0,0-6.623,5.014,10.169,10.169,0,0,0-.08,4.038c0.943,4.943.71,9.839-1.525,14.29-1.967,3.919-2.274,7.974-2.437,12.146C183.36,379.4,183.408,380.852,183.408,382.305ZM74.365,259.948l32.229,40.43,0.593-.212c0.376-13.277.752-26.555,1.139-40.218H74.365Zm217.372,81.236c-0.1.577-.183,0.908-0.2,1.244-0.5,10.508-1.045,21.015-1.456,31.528a40.52,40.52,0,0,0,.4,7.917c1.113,6.973,4.787,9.544,11.708,8.4,2.582-.426,4.763-1.545,5.459-4.33a5.44,5.44,0,0,0-2.728-6.136,5.991,5.991,0,0,1-2.969-6.294c0.683-5.677,1.639-11.323,2.246-17.007,0.538-5.041.755-10.117,1.125-15.324H291.737Zm68.037-70.807-0.551-.182-20.038,33.42L365.366,321.3Zm2.514-5.315q3.06,27.843,6.109,55.579a133.5,133.5,0,0,0,11.67-55.579H362.288Zm-228.87,114.19c0-10.741.021-21.331-.062-31.921a2.12,2.12,0,0,0-1.388-1.532c-5.361-.112-10.726-0.07-16.306-0.07-0.211,2.034-.4,3.885-0.6,5.736-0.207,2.013-.266,3.949-2.273,5.355-1.626,1.139-1.754,3.166-.956,4.906a16.373,16.373,0,0,0,3.063,4.956c3.966,3.863,8.206,7.441,12.279,11.2A5.9,5.9,0,0,0,133.418,379.252Zm-23.349-72.393,22.584-8.243c-7.028-10.76-13.955-21.363-20.881-31.966l-0.552.184C110.838,280.117,110.456,293.4,110.069,306.859Zm22.385-14.006c1.592-11.136,3.083-21.564,4.625-32.354H111.333C118.318,271.2,125.17,281.694,132.454,292.853ZM342.5,340.1c-4.4,0-8.489.13-12.567-.055-2.017-.091-2.375.639-2.479,2.458-0.352,6.149-1.007,12.28-1.348,18.43a55.336,55.336,0,0,0,.256,8.926,2.855,2.855,0,0,0,3.658,2.649c5.276-.881,9.939-6.185,9.84-11.519-0.046-2.451-.708-4.885-0.931-7.341a4.654,4.654,0,0,1,.5-2.744A21.521,21.521,0,0,0,342.5,340.1ZM243.545,128.538c2.68,0.545,4.5-.555,4.4-2.35-0.144-2.438-1.924-3.217-4.041-3.482a19.194,19.194,0,0,0-2.294-.25c-11.954-.023-23.913-0.212-35.861.055-5.009.112-10.005,1.131-14.987,1.874-2.525.377-3.99,2.22-3.5,4.2,0.6,2.4,2.341,2.434,4.436,2.177,6.778-.831,13.563-1.9,20.371-2.127C222.55,128.276,233.052,128.538,243.545,128.538Zm93.408,174.591c-0.772-11.566-1.535-22.984-2.345-35.12l-19.327,26.879Zm0.535-38.57q1.047,15.715,2.094,31.427l0.637,0.076,18.867-31.5h-21.6Zm-21.7,24.537,17.952-24.975H307.078C309.931,272.306,312.788,280.5,315.784,289.1Zm-159.51,3.182-16.837-26.5c-1.6,11.208-3.075,21.592-4.585,32.19Zm0.452-4.875c1.521-9.135,2.925-17.572,4.392-26.382H139.967Zm57.448-186.494c0.614,0.035,1.023.083,1.432,0.078q17.025-.207,34.05-0.43c2.685-.037,3.724-1.405,3.194-4.1a4.623,4.623,0,0,0-4.312-3.827c-5.237-.4-10.507-0.366-15.765-0.465a1.727,1.727,0,0,0-1.146.487c-2.935,3.061-6.719,3.423-10.623,3.428-2.254,0-4.507,0-6.83,0v4.833ZM305.1,267.715c-3.637,7.729-6.992,14.857-10.377,22.052l19.763,4.947ZM201.5,104.306c-5.19.032-9.451,3.4-9.448,7.469s4.244,7.413,9.461,7.435c5.2,0.021,9.494-3.261,9.582-7.321C211.185,107.752,206.783,104.273,201.5,104.306Zm-6.539,178.753,8.415-21.243h-19.7C187.432,268.884,191.064,275.721,194.961,283.059Zm98.486,2.286,10.223-21.736H286.277a4.569,4.569,0,0,0,.133.882C288.67,271.211,290.941,277.927,293.447,285.345ZM187.59,86.982l-8.038-4.567c-6.738,6.64-6.216,21.529-1.829,26.7C180.991,101.784,184.31,94.339,187.59,86.982Zm-5.3,178.691c-2.085,8-3.973,15.252-5.926,22.747l16.784-2.338Zm-17.707-4.212c3.193,7.217,6.388,14.439,9.83,22.216,2.012-7.714,3.858-14.789,5.8-22.216H164.586Zm-0.836,5.647-0.509.029-4.1,24.575L173.4,288.9C170.085,281.416,166.918,274.262,163.75,267.108Zm127.776,22.045c-2.532-7.435-4.863-14.282-7.409-21.762l-8.311,19.246Zm-41.755-26.144,6.16,18.044,8.911-18.044H249.771Zm32.825,0.249H268.127c2.059,6.325,4.052,12.445,6.21,19.075Zm-70.421,21.213c-2.541-6.084-4.9-11.722-7.437-17.809-2.613,6.6-5.014,12.673-7.516,19Zm54-17.322-8.673,17.6,14.832,1.436C270.281,279.832,268.326,273.791,266.176,267.149Zm-52.069,14.036,6.331-19.03H206.18Zm19.981-176.36c-5.061,0-9.929-.233-14.763.071-4.143.261-5.3,2.338-3.8,5.776h19.108Zm13.8,162.211c-2.358,5.945-4.471,11.27-6.764,17.049h12.6C251.824,278.525,249.958,273.077,247.888,267.036ZM235.6,262.713c1.3,5.648,2.528,11.015,3.929,17.117,2.422-6.109,4.543-11.456,6.788-17.117H235.6Zm-3.166-.263h-8.976l4.271,16.646Zm-10.5,6.441-0.48-.105c-1.681,5.083-3.363,10.165-5.146,15.554l9.455-.42C224.413,278.634,223.172,273.762,221.931,268.891ZM229.6,283.73h7.629c-1.088-4.759-2.136-9.337-3.183-13.915l-0.483-.009C232.267,274.375,230.966,278.944,229.6,283.73Zm14.567-171.914a3.389,3.389,0,0,0,3.355-3.436,3.468,3.468,0,0,0-3.419-3.4,3.409,3.409,0,0,0-3.324,3.463A3.337,3.337,0,0,0,244.171,111.816ZM272.219,207c-0.4,22.059-15.983,40.769-38.415,45.765-21.514,4.792-44.38-6.069-53.992-25.645-12.793-26.054,1.715-57.273,30.269-65.129,26.226-7.216,53.176,7.573,60.164,33.16C271.294,199,271.58,203.047,272.219,207Zm-33.993-.041h-0.564a51.687,51.687,0,0,1-.069,7.44c-0.507,3.451.613,5.757,3.41,7.784,3.035,2.2,5.378,5.826,8.681,7.056,3.272,1.22,7.365.23,11.1,0.206a1.708,1.708,0,0,0,.76-0.048c0.677-.379,1.641-0.67,1.924-1.267,7.08-14.906,6.755-29.411-2.615-43.317a3.062,3.062,0,0,0-2.234-1.208c-7.911.3-14.668,3.039-19.341,9.78a5.515,5.515,0,0,0-1,2.789C238.157,199.768,238.226,203.366,238.226,206.961ZM222.9,193.69c3.5,0,7.018.134,10.511-.07a6.856,6.856,0,0,0,3.821-1.493c4.866-4.173,7.416-9.685,8.755-15.874a4.211,4.211,0,0,0-1.608-4.669c-8.64-7.1-18.527-9.11-29.332-7.328-5.842.963-11.191,3.031-15.281,7.615a4.6,4.6,0,0,0-1.063,5.117c2.038,5.692,5.58,10.341,9.539,14.768a5.088,5.088,0,0,0,4.4,1.981C216.051,193.567,219.476,193.69,222.9,193.69Zm-28.557,35.695c6.106,1.377,10.071-1.644,13.186-6.434a9.336,9.336,0,0,0,.981-1.174,9.453,9.453,0,0,0,1.136-3.44c-0.067-4.531-.46-9.058-0.569-13.59-0.235-9.809-.182-9.825-7.746-16.057a4.842,4.842,0,0,0-2.463-1.052c-3.738-.354-7.488-0.639-11.239-0.765a3.35,3.35,0,0,0-2.559,1.08c-1.746,2.708-3.684,5.423-4.741,8.422-3.434,9.745-1.424,19.035,3.161,27.938,2.948,5.726,2.985,5.706,9.32,5.184C193.315,229.455,193.827,229.422,194.338,229.385Zm30.194-8.876c-3.075,0-6.157-.116-9.222.06a6.107,6.107,0,0,0-3.383,1.282c-5.269,4.442-8.255,10.283-10.264,16.8-0.834,2.707-.215,4.286,2,5.8,5.555,3.785,11.811,5.3,18.345,5.709,8.993,0.558,17.53-.831,24.816-6.774a3.11,3.11,0,0,0,1.25-3.518,31.406,31.406,0,0,0-9.664-17.113,7.507,7.507,0,0,0-5.942-2.3C229.841,220.67,227.18,220.509,224.532,220.509Z"></path></svg>